<mxfile host="Electron" agent="Mozilla/5.0 (Windows NT 10.0; Win64; x64) AppleWebKit/537.36 (KHTML, like Gecko) draw.io/28.1.2 Chrome/138.0.7204.243 Electron/37.4.0 Safari/537.36" version="28.1.2">
  <diagram name="PÃ¡gina-1" id="xDBJKnbxobGS_nnI6Lg0">
    <mxGraphModel dx="449" dy="295" grid="1" gridSize="10" guides="1" tooltips="1" connect="1" arrows="1" fold="1" page="1" pageScale="1" pageWidth="827" pageHeight="1169" math="0" shadow="0">
      <root>
        <mxCell id="0" />
        <mxCell id="1" parent="0" />
        <mxCell id="UADjT9dSwcFjDHm_H1Y0-7" style="edgeStyle=orthogonalEdgeStyle;rounded=0;orthogonalLoop=1;jettySize=auto;html=1;exitX=1;exitY=0.25;exitDx=0;exitDy=0;entryX=0;entryY=0.5;entryDx=0;entryDy=0;endArrow=none;endFill=0;" edge="1" parent="1" source="UADjT9dSwcFjDHm_H1Y0-1" target="UADjT9dSwcFjDHm_H1Y0-6">
          <mxGeometry relative="1" as="geometry" />
        </mxCell>
        <mxCell id="UADjT9dSwcFjDHm_H1Y0-8" style="edgeStyle=orthogonalEdgeStyle;rounded=0;orthogonalLoop=1;jettySize=auto;html=1;exitX=1;exitY=0.5;exitDx=0;exitDy=0;endArrow=none;endFill=0;" edge="1" parent="1" source="UADjT9dSwcFjDHm_H1Y0-1" target="UADjT9dSwcFjDHm_H1Y0-5">
          <mxGeometry relative="1" as="geometry" />
        </mxCell>
        <mxCell id="UADjT9dSwcFjDHm_H1Y0-9" style="edgeStyle=orthogonalEdgeStyle;rounded=0;orthogonalLoop=1;jettySize=auto;html=1;exitX=0.75;exitY=1;exitDx=0;exitDy=0;entryX=0;entryY=0.5;entryDx=0;entryDy=0;endArrow=none;endFill=0;" edge="1" parent="1" source="UADjT9dSwcFjDHm_H1Y0-1" target="UADjT9dSwcFjDHm_H1Y0-4">
          <mxGeometry relative="1" as="geometry" />
        </mxCell>
        <mxCell id="UADjT9dSwcFjDHm_H1Y0-11" style="edgeStyle=orthogonalEdgeStyle;rounded=0;orthogonalLoop=1;jettySize=auto;html=1;exitX=0;exitY=0.5;exitDx=0;exitDy=0;entryX=1;entryY=0.5;entryDx=0;entryDy=0;endArrow=none;endFill=0;" edge="1" parent="1" source="UADjT9dSwcFjDHm_H1Y0-1" target="UADjT9dSwcFjDHm_H1Y0-10">
          <mxGeometry relative="1" as="geometry" />
        </mxCell>
        <mxCell id="UADjT9dSwcFjDHm_H1Y0-16" value="(0, 1)" style="edgeLabel;html=1;align=center;verticalAlign=middle;resizable=0;points=[];" vertex="1" connectable="0" parent="UADjT9dSwcFjDHm_H1Y0-11">
          <mxGeometry x="-0.0815" y="-1" relative="1" as="geometry">
            <mxPoint as="offset" />
          </mxGeometry>
        </mxCell>
        <mxCell id="UADjT9dSwcFjDHm_H1Y0-1" value="persona" style="rounded=0;whiteSpace=wrap;html=1;" vertex="1" parent="1">
          <mxGeometry x="310" y="180" width="120" height="60" as="geometry" />
        </mxCell>
        <mxCell id="UADjT9dSwcFjDHm_H1Y0-4" value="&lt;u&gt;dni&lt;/u&gt;" style="ellipse;whiteSpace=wrap;html=1;" vertex="1" parent="1">
          <mxGeometry x="472" y="250" width="76" height="40" as="geometry" />
        </mxCell>
        <mxCell id="UADjT9dSwcFjDHm_H1Y0-5" value="nombre" style="ellipse;whiteSpace=wrap;html=1;" vertex="1" parent="1">
          <mxGeometry x="470" y="200" width="80" height="40" as="geometry" />
        </mxCell>
        <mxCell id="UADjT9dSwcFjDHm_H1Y0-6" value="apellido" style="ellipse;whiteSpace=wrap;html=1;" vertex="1" parent="1">
          <mxGeometry x="480" y="130" width="80" height="40" as="geometry" />
        </mxCell>
        <mxCell id="UADjT9dSwcFjDHm_H1Y0-15" style="edgeStyle=orthogonalEdgeStyle;rounded=0;orthogonalLoop=1;jettySize=auto;html=1;exitX=0.5;exitY=1;exitDx=0;exitDy=0;entryX=0;entryY=1;entryDx=0;entryDy=0;endArrow=none;endFill=0;" edge="1" parent="1" source="UADjT9dSwcFjDHm_H1Y0-10" target="UADjT9dSwcFjDHm_H1Y0-1">
          <mxGeometry relative="1" as="geometry" />
        </mxCell>
        <mxCell id="UADjT9dSwcFjDHm_H1Y0-17" value="(0,1)" style="edgeLabel;html=1;align=center;verticalAlign=middle;resizable=0;points=[];" vertex="1" connectable="0" parent="UADjT9dSwcFjDHm_H1Y0-15">
          <mxGeometry x="0.0963" y="-1" relative="1" as="geometry">
            <mxPoint as="offset" />
          </mxGeometry>
        </mxCell>
        <mxCell id="UADjT9dSwcFjDHm_H1Y0-10" value="se casa con" style="rhombus;whiteSpace=wrap;html=1;" vertex="1" parent="1">
          <mxGeometry x="140" y="170" width="80" height="80" as="geometry" />
        </mxCell>
      </root>
    </mxGraphModel>
  </diagram>
</mxfile>
